<?xml version="1.0" encoding="UTF-8" standalone="no"?>
<svg
   version="1.1"
   width="2048"
   height="2048"
   viewBox="0 0 2048 2048"
   xmlns="http://www.w3.org/2000/svg"
   xmlns:svg="http://www.w3.org/2000/svg">
  <g>
    <path
       style="fill:#0b3f79;fill-opacity:1"
       d="m 904.49275,625.75 c 0.87237,-1.2375 4.57787,-6.525 8.23445,-11.75 18.88956,-26.99185 44.86088,-54.2678 72.90953,-76.57206 16.56247,-13.17048 53.97657,-35.1604 73.10997,-42.97006 3.9858,-1.62683 7.2483,-3.19853 7.25,-3.49267 0,-0.29413 -83.00054,-0.51913 -184.44969,-0.5 L 697.09402,490.5 691.91332,505 c -9.63804,26.97541 -20.03906,56.43282 -24.89263,70.5 -2.65671,7.7 -7.7982,22.22084 -11.42554,32.26854 C 651.96782,617.81624 649,626.47874 649,627.01854 649,627.65533 693.58354,628 775.95332,628 h 126.95331 z"
       />
    <path
       style="fill:#0b3f79;fill-opacity:1"
       d="m 295.47745,1043.8846 c 5.35864,-1.4877 11.0265,-7.3287 12.5302,-12.913 2.83203,-10.5174 -0.95677,-20.5062 -9.73532,-25.6664 L 293.5,1002.5 l -22.7906,0.2453 c -25.36652,0.2731 -25.88794,0.3893 -31.97578,7.1278 -6.70302,7.4194 -7.33623,16.6314 -1.74883,25.4419 2.7625,4.356 6.48942,7.0718 12.00874,8.7507 3.98281,1.2115 42.00125,1.0634 46.48392,-0.1811 z"
       />
    <path
       style="fill:#0b3f79;fill-opacity:1"
       d="m 375.5,1077.1212 c 2.2,-1.0092 5.3005,-3.1369 6.89,-4.7281 5.65682,-5.6629 5.7376,-6.3251 5.68508,-46.6018 -0.0282,-21.6192 -0.46826,-38.53773 -1.05952,-40.73352 -4.08495,-15.17035 -21.23874,-20.82481 -32.68567,-10.77428 -7.24749,6.36338 -7.28398,6.60931 -7.30235,49.2165 -0.0107,24.712 0.37003,39.3987 1.08866,42 1.31072,4.7445 7.48425,11.0375 12.15036,12.3855 5.18486,1.4979 10.93041,1.2096 15.23344,-0.7643 z"
       />
    <path
       style="fill:#0b3f79;fill-opacity:1"
       d="m 452,1113.015 c 4.98496,-1.3871 10.40458,-6.2169 12.87608,-11.4748 2.10466,-4.4774 2.12383,-5.1781 2.11415,-77.2793 l -0.01,-72.7609 -2.35788,-5 c -5.39383,-11.43784 -15.9542,-15.35262 -27.23961,-10.09784 -6.72403,3.13088 -10.03515,7.58735 -11.2408,15.12906 -0.55157,3.45027 -0.88836,35.71606 -0.79818,76.46878 0.15516,70.1148 0.16777,70.5219 2.30869,74.5 5.10615,9.488 14.09168,13.3686 24.34732,10.515 z"
       />
    <path
       style="fill:#0b3f79;fill-opacity:1"
       d="m 689.70467,1147.4951 c 5.5798,-1.6571 10.47366,-5.9434 13.12428,-11.4951 1.52949,-3.2035 1.67105,-12.6514 1.67105,-111.5267 V 916.44661 l -2.5419,-4.9733 c -1.72969,-3.3842 -4.12614,-6.04237 -7.5,-8.31907 -4.59646,-3.10172 -5.43221,-3.31764 -11.4581,-2.96015 -8.30735,0.49284 -13.91327,3.96599 -17.2134,10.66457 L 663.5,915.5 v 108.5 108.5 l 2.5,5 c 2.06337,4.1267 3.54792,5.5627 8.5,8.2219 6.86268,3.6851 8.22963,3.8445 15.20467,1.7732 z"
       />
    <path
       style="fill:#0b3f79;fill-opacity:1"
       d="m 536.58663,1187.9465 c 1.73048,-1.0695 4.44391,-3.8575 6.02985,-6.1955 l 2.88352,-4.251 0.25956,-151.9703 0.25957,-151.97032 -2.60806,-5.33068 c -3.7127,-7.58847 -8.5689,-10.59681 -17.86355,-11.06617 -6.80144,-0.34345 -7.33674,-0.20458 -11.51995,2.98864 -2.44473,1.86616 -5.4116,5.40472 -6.70113,7.99237 l -2.31407,4.64354 -0.0136,150.35642 c -0.009,94.5039 0.34773,151.6093 0.9592,153.7292 3.72356,12.9091 18.82487,18.3689 30.6287,11.0738 z"
       />
    <path
       style="fill:#0b3f79;fill-opacity:1"
       d="m 616.42138,1261.1669 c 2.3606,-1.7029 5.24153,-5.1525 6.8394,-8.1894 l 2.76077,-5.2471 -0.26077,-224.1152 L 625.5,799.5 623,794.50736 c -4.92861,-9.84272 -15.34325,-14.55751 -24.46306,-11.07462 -5.40725,2.06505 -12.02273,9.05277 -13.45545,14.21256 -0.74599,2.68659 -1.06537,71.5832 -1.05395,227.3547 0.0158,215.4182 0.0833,223.6446 1.86832,227.5 5.46979,11.8142 20.3185,16.0301 30.52552,8.6669 z"
       />
    <path
       style="fill:#0b3f79;fill-opacity:1"
       d="M 1510.3945 761 C 1433.1778 761 1370 761.16192 1370 761.35938 C 1370 761.55682 1368.173 766.84432 1365.9395 773.10938 C 1363.7061 779.37442 1360.5796 788.325 1358.9922 793 C 1357.4047 797.675 1353.35 809.15 1349.9824 818.5 C 1344.1251 834.76274 1340.2159 845.78788 1325.6875 887 C 1322.1005 897.175 1317.5053 910 1315.4766 915.5 C 1311.0272 927.56257 1295.4432 971.65992 1289.502 989 C 1287.1465 995.875 1282.6447 1008.475 1279.498 1017 C 1276.3514 1025.525 1273.4147 1033.625 1272.9707 1035 C 1270.6323 1042.242 1255.4062 1086.0143 1250.709 1099 C 1248.8191 1104.225 1244.5093 1116.375 1241.1309 1126 C 1237.7524 1135.625 1234.5637 1144.4 1234.0449 1145.5 C 1233.5261 1146.6 1229.9668 1156.725 1226.1348 1168 C 1222.3027 1179.275 1217.9377 1191.875 1216.4355 1196 C 1210.3039 1212.837 1207.7263 1220.0447 1203.9199 1231 C 1198.1455 1247.6194 1195 1256.9734 1195 1257.5215 C 1195 1257.7849 1253.05 1258 1324 1258 C 1394.95 1258 1453 1258.2461 1453 1258.5469 C 1453 1259.3605 1449.367 1279.7379 1444.9863 1303.5 C 1440.9508 1325.3894 1440.3385 1328.6402 1434.5234 1359 C 1430.7573 1378.6626 1430.7061 1379 1431.5352 1379 C 1431.83 1379 1438.6925 1374.6678 1446.7852 1369.373 C 1454.8779 1364.0782 1469.375 1354.5907 1479 1348.2891 C 1495.9774 1337.1739 1533.136 1312.8833 1564.2656 1292.5508 C 1572.6443 1287.0782 1588.144 1277.0657 1598.709 1270.3008 L 1617.918 1258 L 1634.209 1257.9902 C 1667.6699 1257.9732 1687.6275 1253.6436 1714.748 1240.5195 C 1759.8713 1218.6835 1791.4543 1183.0285 1806.8887 1136.498 C 1815.8666 1109.4322 1816.2086 1104.2085 1815.75 1000.998 C 1815.3386 908.41804 1815.5515 911.99452 1809.041 888.80859 C 1791.4332 826.10328 1742.0589 779.33614 1677.9258 764.61914 C 1663.2684 761.25563 1651.4482 761 1510.3945 761 z M 1561.9727 865.80469 C 1562.2324 865.97277 1562.4574 875.64777 1562.4727 887.30469 L 1562.5 908.5 L 1624 908.72656 L 1685.5 908.95312 L 1685.5 926.22656 L 1685.5 943.5 L 1661.877 943.76758 L 1638.2539 944.03516 L 1636.5098 950.26758 C 1626.7056 985.32026 1603.9152 1025.2879 1578.6855 1051.6719 C 1575.2836 1055.2294 1572.5 1058.5995 1572.5 1059.1621 C 1572.5 1060.4265 1589.2305 1071.0139 1602 1077.8301 C 1622.1088 1088.5639 1652.4959 1100.124 1674.9023 1105.5645 L 1685.998 1108.2598 L 1677.8672 1123.8789 C 1673.3949 1132.4701 1669.3532 1140.2419 1668.8867 1141.1484 C 1667.8188 1143.2232 1664.4556 1142.5655 1647 1136.8672 C 1613.6845 1125.9916 1583.9698 1111.9298 1559.2266 1095.332 L 1543.6738 1084.8984 L 1536.8086 1089.6992 C 1507.6011 1110.1222 1468.4411 1128.5625 1432 1139.0547 C 1426.225 1140.7175 1420.8064 1142.287 1419.959 1142.541 C 1418.8332 1142.8783 1417.1493 1140.3772 1413.7012 1133.252 L 1413.6992 1133.252 C 1411.1038 1127.8889 1407.1856 1120.2652 1404.9902 1116.3105 C 1402.7949 1112.3558 1401.3349 1108.9111 1401.748 1108.6562 C 1402.161 1108.4015 1406.3489 1107.2789 1411.0527 1106.1621 C 1415.7564 1105.0453 1428.3834 1101.2221 1439.1133 1097.666 C 1461.1845 1090.3512 1485.7543 1078.7013 1504.0547 1066.875 L 1514.8984 1059.8672 L 1505.6836 1049.1621 C 1488.3361 1029.0097 1482.7299 1020.899 1469.541 996.86719 L 1460.0586 979.58789 L 1464.7793 977.77344 C 1476.928 973.10501 1494.2624 967.86682 1495.002 968.64062 C 1495.4539 969.11338 1497.7173 973.1 1500.0312 977.5 C 1509.3049 995.13394 1526.1685 1018.1396 1538.7773 1030.3594 L 1543.791 1035.2188 L 1548.0527 1030.8594 C 1562.0093 1016.5866 1575.8432 997.13875 1585.1387 978.72461 C 1589.428 970.22749 1596.7532 951.83033 1597.5605 947.52734 L 1598.2227 944 L 1500.1113 944 L 1402 944 L 1402 926.5 L 1402 909 L 1463.5 909 L 1525 909 L 1525 887.5625 L 1525 866.12695 L 1543.25 865.8125 C 1553.2875 865.64029 1561.7129 865.63709 1561.9727 865.80469 z " />
    <path
       style="fill:#0b3f79;fill-opacity:1"
       d="m 1370.0512,1553.25 c 1.1875,-3.6919 10.707,-30.6609 17.3842,-49.25 12.2858,-34.2036 28.5646,-81.2108 28.5646,-82.4842 0,-1.3488 -18.2093,-1.5028 -165.25,-1.3975 -90.8875,0.065 -166.5945,0.4061 -168.2378,0.7577 -1.8913,0.4048 -3.1269,1.3705 -3.3668,2.6317 -0.2084,1.0958 -1.2264,3.1868 -2.2622,4.6467 -1.0357,1.4599 -1.8832,2.993 -1.8832,3.4069 0,0.4139 -3.4467,6.1944 -7.6593,12.8456 -27.4373,43.3204 -68.09057,79.5506 -116.42438,103.7575 -8.75398,4.3843 -15.91632,8.1658 -15.91632,8.4035 0,0.2376 97.6151,0.4321 216.9224,0.4321 h 216.9225 z"
       />
    <path
       style="fill:#0b3f79;fill-opacity:1"
       d="m 860,1551.8016 c 37.94773,-10.6045 76.91941,-30.0313 107.12694,-53.4011 8.70336,-6.7333 28.27325,-23.9621 31.93756,-28.1169 1.3502,-1.531 6.3389,-7.1588 11.086,-12.5062 20.9502,-23.5995 40.3187,-54.0717 52.5719,-82.7106 6.7699,-15.8231 20.1496,-51.436 25.937,-69.0371 1.351,-4.1087 5.8616,-16.9337 10.0237,-28.5 4.162,-11.5664 9.7103,-27.1047 12.3295,-34.5297 2.6192,-7.425 5.75,-16.2 6.9574,-19.5 1.2073,-3.3 3.9046,-10.95 5.9941,-17 2.0894,-6.05 6.0582,-17.3 8.8195,-25 7.1175,-19.8474 31.1677,-87.9277 33.3832,-94.5 1.0198,-3.025 2.1373,-6.175 2.4833,-7 0.3461,-0.825 2.991,-8.25 5.8776,-16.5 9.1744,-26.2204 18.1174,-51.5485 23.4804,-66.5 2.8605,-7.975 5.8364,-16.50883 6.613,-18.96406 0.7767,-2.45523 5.285,-15.28023 10.0186,-28.5 4.7335,-13.21977 11.4684,-32.13594 14.9663,-42.03594 3.4979,-9.9 9.5595,-27 13.4702,-38 8.203,-23.07278 9.0071,-25.3403 23.9377,-67.5 26.1106,-73.72845 27.5068,-77.81261 26.8318,-78.48762 -0.2691,-0.26913 -36.8832,-0.505 -81.3647,-0.52416 -73.0873,-0.0315 -80.9616,0.11909 -81.77,1.56366 -0.492,0.87917 -3.0807,7.75216 -5.7527,15.27331 -2.6719,7.52114 -6.7327,18.84981 -9.0239,25.17481 -2.2912,6.325 -6.7879,19.15 -9.9927,28.5 -3.2047,9.35 -9.0467,26 -12.9822,37 -8.796,24.58598 -25.8043,73.12006 -30.8628,88.06908 l -3.7457,11.06908 0.081,56.93092 c 0.045,31.31202 -0.2252,59.90682 -0.6,63.54412 -0.3748,3.6372 -1.8836,10.1622 -3.3529,14.5 -7.8537,23.1864 -24.6053,39.0379 -48.0528,45.4706 -11.14976,3.0589 -29.76549,2.4523 -40.2614,-1.3118 -10.6861,-3.8324 -17.64882,-8.3067 -26.13977,-16.7976 -11.02976,-11.0298 -17.75934,-23.492 -19.96618,-36.9744 -0.68149,-4.1634 -1.04883,-31.1262 -1.02189,-75.00662 0.0403,-65.58448 0.12901,-68.84759 2.0808,-76.5 1.12131,-4.39636 3.35158,-10.75391 4.95616,-14.12789 13.60546,-28.60854 45.7483,-44.42381 76.94798,-37.86076 7.5655,1.59146 8.9775,1.39053 8.9775,-1.27755 0,-0.91014 4.0274,-12.92108 8.9498,-26.69099 4.9224,-13.7699 11.4035,-32.01119 14.4025,-40.53619 2.999,-8.525 11.3857,-32.375 18.6371,-53 20.727,-58.95347 23.3404,-64.4354 37.4816,-78.62157 7.821,-7.84588 10.4168,-9.75232 18.5608,-13.6317 11.2631,-5.36512 18.1406,-7.28312 31.1788,-8.69511 6.1985,-0.67128 50.8647,-1.05806 123.5,-1.06942 l 113.7894,-0.0178 12.1877,-35.2322 c 6.7033,-19.37771 14.6539,-42.2072 17.668,-50.7322 13.3997,-37.89885 17.61,-50.36759 17.1598,-50.81779 -0.2654,-0.26541 -53.1319,-0.41918 -117.4811,-0.34171 -96.9352,0.1167 -119.3596,0.4 -130.7665,1.65208 -40.0403,4.39503 -75.5398,15.12354 -113.0326,34.16025 -17.722,8.9982 -23.4864,12.48591 -39.2353,23.73896 -25.7664,18.41089 -47.19546,38.15003 -66.33985,61.10821 -21.69403,26.01574 -34.01523,45.00046 -48.5816,74.85537 C 898.17999,710.7424 896.1674,715.9244 873.32033,781 c -9.34146,26.60741 -14.76907,41.83348 -19.78399,55.5 -2.42186,6.6 -6.94509,19.425 -10.05162,28.5 -3.10653,9.075 -7.82422,22.575 -10.48376,30 -2.65954,7.425 -7.73905,21.6 -11.28779,31.5 -3.54875,9.9 -9.71221,27.225 -13.69658,38.5 -3.98437,11.275 -8.14145,22.975 -9.23796,26 -6.30301,17.3884 -12.1219,34.0118 -13.12656,37.5 -0.94456,3.2795 -1.24213,-2.214 -1.65207,-30.5 l -0.5,-34.5 -2.71686,-5.15135 c -4.46218,-8.46061 -10.80148,-11.9857 -19.97004,-11.10471 -6.30806,0.60612 -12.44499,4.79769 -15.8131,10.80046 l -2.5,4.4556 -0.27996,60.2819 c -0.19749,42.5241 0.0533,61.5194 0.85124,64.4828 1.39817,5.1924 8.37293,12.4741 12.7955,13.3587 3.5625,0.7125 3.69556,1.2568 1.67263,6.8432 -1.77187,4.893 -15.05229,42.5005 -23.49512,66.5334 -6.98302,19.8775 -8.58881,24.396 -16.3478,46 -3.06171,8.525 -11.92784,33.725 -19.70251,56 -7.77467,22.275 -14.84927,42.1921 -15.72134,44.2602 -0.87207,2.0681 -1.25257,4.0931 -0.84556,4.5 0.57034,0.5702 163.56635,1.1764 163.57169,0.6084 0.003,-0.3367 12.23228,-34.9859 15.48299,-43.8686 2.01279,-5.5 6.79032,-19 10.61674,-30 3.82642,-11 7.65508,-21.8 8.50814,-24 0.85306,-2.2 3.94623,-10.75 6.87372,-19 2.92748,-8.25 6.50993,-18.15 7.961,-22 3.60491,-9.5646 10.69599,-29.7646 10.89578,-31.0382 0.0896,-0.571 -3.34728,-4.1093 -7.63745,-7.8628 -26.6393,-23.3073 -43.26481,-56.057 -46.79118,-92.1713 -0.6227,-6.3772 -0.96068,-21.0035 -0.75106,-32.5028 0.48815,-26.77888 -0.4416,-25.4249 17.45868,-25.4249 11.74542,0 12.67652,0.14318 14.34706,2.20622 1.58307,1.95498 1.84721,5.25708 2.31974,28.99998 0.4345,21.832 0.91276,28.5388 2.58262,36.2171 5.96553,27.4304 21.55754,50.0973 45.13445,65.6145 18.10161,11.9136 33.46988,16.4389 55.87621,16.4531 16.83529,0.011 27.48889,-2.044 41.25809,-7.9572 15.4403,-6.6309 25.7657,-13.8076 36.4164,-25.3113 11.6947,-12.6314 19.1732,-25.8379 23.9336,-42.265 3.3012,-11.3918 4.2349,-21.5062 4.4271,-47.9573 0.1264,-17.3989 0.4537,-22.2937 1.5649,-23.4049 1.5437,-1.54377 20.1586,-3.45569 24.6481,-2.53163 1.4434,0.2971 3.5773,1.55442 4.7418,2.79403 2.0481,2.1801 2.12,3.1689 2.1957,30.1981 0.069,24.7573 -0.1646,29.1418 -2.0518,38.4443 -8.7918,43.3382 -33.0133,76.1105 -71.3032,96.4751 -12.2262,6.5025 -21.8633,10.0757 -33.7069,12.4977 -5.775,1.181 -11.2875,2.3756 -12.25,2.6546 -1.6084,0.4663 -1.75,2.5971 -1.75,26.333 0,21.763 -0.2305,25.9141 -1.4655,26.388 -0.806,0.3093 -8.34345,0.4699 -16.74995,0.357 L 972.5,1233.5 l -0.25484,-24 c -0.14016,-13.2 -0.49241,-24.6377 -0.78278,-25.4172 -0.97924,-2.6287 -2.65378,0.5162 -6.98248,13.1133 -2.32536,6.7671 -8.14394,23.3289 -12.93016,36.8039 -4.78623,13.475 -10.17833,28.775 -11.98245,34 -1.80413,5.225 -5.78644,16.475 -8.84958,25 -3.06314,8.525 -8.05054,22.7 -11.08311,31.5 -6.93815,20.1333 -14.71466,42.1547 -22.60067,64 -3.37528,9.35 -8.32754,23.3 -11.00502,31 -7.89454,22.7034 -16.61481,47.3829 -19.96373,56.5 -3.31412,9.0223 -12.68788,36.073 -21.64608,62.4659 -2.98051,8.7813 -5.4191,16.5795 -5.4191,17.3295 0,1.7064 1.88457,1.348 21,-3.9938 z"
       />
  </g>
</svg>